<?xml version="1.0" encoding="UTF-8" standalone="no"?><!DOCTYPE svg PUBLIC "-//W3C//DTD SVG 1.1//EN" "http://www.w3.org/Graphics/SVG/1.1/DTD/svg11.dtd"><svg width="100%" height="100%" viewBox="0 0 48 48" version="1.1" xmlns="http://www.w3.org/2000/svg" xmlns:xlink="http://www.w3.org/1999/xlink" xml:space="preserve" style="fill-rule:evenodd;clip-rule:evenodd;stroke-linejoin:round;stroke-miterlimit:1.41421;"><g><path d="M48.001,6.893c0,-0.548 -0.445,-0.994 -0.994,-0.994l-46.011,0c-0.549,0 -0.994,0.446 -0.994,0.994l0,34.235c0,0.548 0.445,0.994 0.994,0.994l46.011,0c0.549,0 0.994,-0.446 0.994,-0.994l0,-34.235Z" style="fill:url(#_Linear1);"/><path d="M24.001,10.011c-3.225,0 -6.21,1.114 -8.588,2.976c-3.285,2.571 -5.412,6.569 -5.412,11.024c0,7.68 6.32,14 14,14c7.681,0 14,-6.32 14,-14c0,-0.003 0,-0.006 0,-0.009c0,-7.675 -6.316,-13.991 -13.991,-13.991c-0.003,0 -0.006,0 -0.009,0l0,0Zm0,26.942c-7.103,-0.011 -12.942,-5.86 -12.942,-12.964c0,-7.111 5.852,-12.963 12.964,-12.963c7.111,0 12.963,5.852 12.963,12.963c0,0.008 0,0.015 0,0.022c-0.004,7.101 -5.849,12.942 -12.951,12.942c-0.011,0 -0.022,0 -0.034,0l0,0Z" style="fill:#39d24d;fill-rule:nonzero;"/><path d="M32.799,22.065c0.101,-0.387 0.157,-0.784 0.169,-1.184c-0.015,-0.414 -0.071,-0.825 -0.169,-1.227l0,-4.229l-0.508,0.084c-1.607,0.169 -3.256,0.296 -4.864,0.381c-2.188,-0.93 -4.663,-0.93 -6.852,0c-1.649,-0.085 -3.256,-0.212 -4.864,-0.381l-0.507,-0.042l0,4.229c-0.121,0.398 -0.178,0.812 -0.169,1.227c-0.007,0.401 0.05,0.801 0.169,1.184c-0.761,0.423 -1.354,1.354 -1.354,2.665c-0.084,2.961 1.946,5.837 1.946,5.837c0.21,-0.632 0.509,-1.23 0.888,-1.777c0.743,1.145 1.742,2.101 2.919,2.792c-0.155,-0.001 -0.3,0.079 -0.381,0.211c-0.081,-0.132 -0.226,-0.212 -0.381,-0.211l-0.127,0c-0.254,0.002 -0.463,0.211 -0.465,0.465l0,1.523c0,0.01 -0.001,0.02 -0.001,0.03c0,0.257 0.209,0.471 0.466,0.477l0.17,0c0.155,0.001 0.299,-0.079 0.38,-0.211c0.081,0.132 0.226,0.212 0.381,0.211l0.127,0c0.155,0.001 0.299,-0.079 0.381,-0.211c0.081,0.132 0.225,0.212 0.38,0.211l0.042,0c0.255,-0.002 0.463,-0.211 0.466,-0.465l0,-1.353c1.901,0.676 3.978,0.676 5.879,0l0,1.311c-0.001,0.263 0.203,0.485 0.465,0.507l0.127,0c0.155,0.001 0.3,-0.079 0.381,-0.211c0.081,0.132 0.225,0.212 0.38,0.211l0.127,0c0.155,0.001 0.3,-0.079 0.381,-0.211c0.081,0.132 0.226,0.212 0.381,0.211l0.126,0c0.258,-0.006 0.467,-0.22 0.467,-0.477c0,-0.01 -0.001,-0.02 -0.001,-0.03l0,-1.565c0.001,-0.263 -0.203,-0.486 -0.466,-0.508l-0.126,0c-0.155,0 -0.3,0.08 -0.381,0.212c-0.081,-0.132 -0.226,-0.212 -0.381,-0.212c1.177,-0.69 2.176,-1.646 2.919,-2.791c0.379,0.547 0.678,1.145 0.888,1.776c0.21,0.632 2.03,-2.876 1.946,-5.837c0.06,-1.054 -0.46,-2.06 -1.354,-2.622l0,0Zm-13.069,2.665c-2.089,0 -3.807,-1.719 -3.807,-3.807c0,-2.088 1.718,-3.807 3.807,-3.807c2.088,0 3.806,1.719 3.806,3.807c0,2.088 -1.718,3.807 -3.806,3.807l0,0Zm4.271,1.861l-1.734,-1.734c0.749,-0.492 1.349,-1.18 1.734,-1.988c0.375,0.816 0.977,1.506 1.735,1.988l-1.735,1.734Zm4.272,-1.861c-2.088,0 -3.806,-1.719 -3.806,-3.807c0,-2.088 1.718,-3.807 3.806,-3.807c2.089,0 3.807,1.719 3.807,3.807c0,2.088 -1.718,3.807 -3.807,3.807Z" style="fill:#39d24d;fill-rule:nonzero;"/><circle id="eye_left" cx="19.801" cy="20.861" r="1.486" style="fill:#39d24d;"/><circle id="eye_right" cx="28.201" cy="20.861" r="1.486" style="fill:#39d24d;"/></g><defs><linearGradient id="_Linear1" x1="0" y1="0" x2="1" y2="0" gradientUnits="userSpaceOnUse" gradientTransform="matrix(6.77554,-37.2849,37.2849,6.77554,-428.483,43.1946)"><stop offset="0" style="stop-color:#252525;stop-opacity:1"/><stop offset="1" style="stop-color:#4c4c4c;stop-opacity:1"/></linearGradient></defs></svg>